<?xml version="1.0" standalone="yes"?>

<svg version="1.1" viewBox="0.0 0.0 960.0 540.0" fill="none" stroke="none" stroke-linecap="square" stroke-miterlimit="10" xmlns="http://www.w3.org/2000/svg" xmlns:xlink="http://www.w3.org/1999/xlink"><clipPath id="g57a9dbf96_0152.0"><path d="m0 0l960.0 0l0 540.0l-960.0 0l0 -540.0z" clip-rule="nonzero"></path></clipPath><g clip-path="url(#g57a9dbf96_0152.0)"><path fill="#ffffff" d="m0 0l960.0 0l0 540.0l-960.0 0z" fill-rule="nonzero"></path><path fill="#000000" fill-opacity="0.0" d="m48.0 21.625038l864.0 0l0 90.015755l-864.0 0z" fill-rule="nonzero"></path><path fill="#1155cc" d="m68.28125 59.424538q4.71875 -5.46875 8.9375 -5.46875q4.8125 0 7.0625 3.65625q1.90625 -1.6875 4.21875 -2.53125q2.3125 -0.84375 5.0 -0.84375q6.125 0 8.3125 6.09375q0.4375 1.25 1.34375 8.46875q0.875 5.0625 2.25 16.875q0.125 1.78125 -1.21875 2.9375q-1.34375 1.15625 -3.15625 1.15625q-3.59375 0 -4.21875 -3.5625q-0.5625 -3.21875 -1.15625 -9.09375q-0.625 -6.4375 -1.03125 -9.125q-0.84375 -5.59375 -2.15625 -5.59375q-0.71875 0 -3.28125 1.4375q-2.5625 1.4375 -3.75 2.46875q0 3.5625 0.84375 10.25q0.875 6.84375 0.875 10.25q0 1.78125 -1.21875 2.96875q-1.21875 1.1875 -3.09375 1.1875q-1.875 0 -3.09375 -1.1875q-1.21875 -1.1875 -1.21875 -2.96875q0 -3.5625 -0.765625 -10.484375q-0.765625 -6.921875 -0.765625 -10.484375q0 -2.0 -0.34375 -3.1875q-3.625 2.09375 -7.28125 6.96875q-0.15625 0.21875 -0.53125 0.65625q-0.125 6.3125 -0.125 9.90625q0 0.875 -0.0625 2.359375q-0.0625 1.484375 -0.0625 2.203125q0 1.6875 -1.375 2.65625q-1.25 0.90625 -3.09375 0.90625q-2.65625 0 -3.59375 -2.3125q-0.65625 -1.5625 -0.65625 -4.96875l0 -11.625q0 -1.5625 -0.125 -4.578125q-0.125 -3.015625 -0.125 -4.578125q0 -2.78125 1.0 -5.03125q1.21875 -2.8125 3.4375 -2.8125q1.75 0 3.125 1.359375q1.375 1.359375 1.375 2.984375q0 -0.65625 -0.28125 2.6875zm68.59375 29.71875q-1.4375 0 -4.5625 -3.125q-2.875 1.375 -5.0625 2.078125q-2.1875 0.703125 -3.71875 0.703125q-7.53125 0 -11.296875 -4.03125q-3.765625 -4.03125 -3.765625 -12.0625q0 -7.53125 5.5625 -12.890625q5.5625 -5.359375 13.3125 -5.359375q2.96875 0 6.875 1.6875q4.71875 2.03125 4.71875 4.71875q0 1.125 -0.71875 1.96875q-0.3125 1.25 -0.484375 3.140625q-0.171875 1.890625 -0.171875 4.421875q0 5.96875 0.84375 8.59375q0.09375 0.28125 1.4375 3.25q1.21875 2.6875 1.21875 3.0625q0 1.65625 -1.265625 2.75q-1.265625 1.09375 -2.921875 1.09375zm-7.75 -21.4375q0 -1.0 0.140625 -2.296875q0.140625 -1.296875 0.421875 -2.890625q-0.625 -0.3125 -1.109375 -0.453125q-0.484375 -0.140625 -0.828125 -0.140625q-4.25 0 -7.4375 3.328125q-3.1875 3.328125 -3.1875 7.703125q0 4.1875 1.5 6.296875q1.5 2.109375 4.5 2.109375q1.9375 0 3.671875 -0.640625q1.734375 -0.640625 3.265625 -1.890625q-0.9375 -7.4375 -0.9375 -11.125zm30.78125 21.21875q-2.6875 0 -5.65625 -0.625l-0.03125 12.75q0 1.8125 -1.21875 3.0q-1.21875 1.1875 -3.09375 1.1875q-1.875 0 -3.09375 -1.1875q-1.21875 -1.1875 -1.21875 -3.0q0 -1.46875 0.0625 -11.65625q0.0625 -7.5625 0 -12.34375q-0.09375 -6.75 -0.4375 -11.625q-0.46875 -6.71875 -0.46875 -6.15625q0 -2.59375 1.15625 -4.4375q1.34375 -2.09375 3.625 -2.09375q1.75 0 2.9375 1.1875q1.1875 1.1875 1.1875 2.84375l-0.03125 0.3125q2.09375 -1.1875 4.203125 -1.765625q2.109375 -0.578125 4.234375 -0.578125q7.1875 0 10.5 6.09375q2.46875 4.59375 2.46875 11.90625q0 6.84375 -3.90625 11.34375q-4.1875 4.84375 -11.21875 4.84375zm2.15625 -25.84375q-1.96875 0 -4.0 0.921875q-2.03125 0.921875 -4.09375 2.765625q0.375 6.4375 0.375 12.90625q2.78125 0.90625 5.5625 0.90625q3.21875 0 4.9375 -2.28125q1.5625 -2.0625 1.5625 -5.5625q0 -4.21875 -0.375 -5.84375q-0.90625 -3.8125 -3.96875 -3.8125z" fill-rule="nonzero"></path><path stroke="#1155cc" stroke-width="5.46875" stroke-linecap="butt" d="m57.0 95.58079l119.5 0" fill-rule="nonzero"></path><a xlink:href="https://www.google.com/url?q=https%3A%2F%2Fspark.apache.org%2Fdocs%2F1.1.0%2Fapi%2Fpython%2Fpyspark.rdd.RDD-class.html%23map&amp;sa=D&amp;sntz=1&amp;usg=AFQjCNGqoygrwnddsMhMsIhQ8C3wNG2WaA" target="_blank"><path fill="transparent" fill-opacity="0" d="m57.0 105.73704l0 -89.1875l119.5 0l0 89.1875zm119.5 0l0 -89.1875l0 0l0 89.1875z" fill-rule="evenodd"></path></a><a xlink:href="https://www.google.com/url?q=https%3A%2F%2Fspark.apache.org%2Fdocs%2F1.1.0%2Fapi%2Fpython%2Fpyspark.rdd.RDD-class.html%23map&amp;sa=D&amp;sntz=1&amp;usg=AFQjCNGqoygrwnddsMhMsIhQ8C3wNG2WaA" target="_blank"><path fill="transparent" fill-opacity="0" d="m176.5 105.73704l0 -89.1875l0 0l0 89.1875z" fill-rule="evenodd"></path></a><path fill="#3a81ba" d="m54.38845 173.3412l287.52756 0l0 79.71654l-287.52756 0z" fill-rule="nonzero"></path><path stroke="#000000" stroke-width="2.0" stroke-linejoin="round" stroke-linecap="butt" d="m54.38845 173.3412l287.52756 0l0 79.71654l-287.52756 0z" fill-rule="nonzero"></path><path fill="#3a81ba" d="m84.10105 206.45932l287.52756 0l0 79.71652l-287.52756 0z" fill-rule="nonzero"></path><path stroke="#000000" stroke-width="2.0" stroke-linejoin="round" stroke-linecap="butt" d="m84.10105 206.45932l287.52756 0l0 79.71652l-287.52756 0z" fill-rule="nonzero"></path><path fill="#000000" fill-opacity="0.0" d="m113.81365 255.20503l0 0c0 -8.63089 6.9967117 -15.627609 15.627602 -15.627609l275.1385 0c4.1447144 0 8.119659 1.6464844 11.0503845 4.5772247c2.9307556 2.9307404 4.57724 6.9056854 4.57724 11.0503845l0 62.50856c0 8.63089 -6.9967346 15.6276245 -15.6276245 15.6276245l-275.1385 0c-8.63089 0 -15.627602 -6.9967346 -15.627602 -15.6276245z" fill-rule="nonzero"></path><path stroke="#00ff00" stroke-width="4.0" stroke-linejoin="round" stroke-linecap="butt" d="m113.81365 255.20503l0 0c0 -8.63089 6.9967117 -15.627609 15.627602 -15.627609l275.1385 0c4.1447144 0 8.119659 1.6464844 11.0503845 4.5772247c2.9307556 2.9307404 4.57724 6.9056854 4.57724 11.0503845l0 62.50856c0 8.63089 -6.9967346 15.6276245 -15.6276245 15.6276245l-275.1385 0c-8.63089 0 -15.627602 -6.9967346 -15.627602 -15.6276245z" fill-rule="nonzero"></path><path fill="#d89f39" d="m124.10105 246.45932l287.52756 0l0 79.71652l-287.52756 0z" fill-rule="nonzero"></path><path stroke="#000000" stroke-width="2.0" stroke-linejoin="round" stroke-linecap="butt" d="m124.10105 246.45932l287.52756 0l0 79.71652l-287.52756 0z" fill-rule="nonzero"></path><path fill="#d89f39" d="m486.38846 173.3412l287.52756 0l0 79.71654l-287.52756 0z" fill-rule="nonzero"></path><path stroke="#000000" stroke-width="2.0" stroke-linejoin="round" stroke-linecap="butt" d="m486.38846 173.3412l287.52756 0l0 79.71654l-287.52756 0z" fill-rule="nonzero"></path><path fill="#d89f39" d="m516.1011 206.45932l287.52753 0l0 79.71652l-287.52753 0z" fill-rule="nonzero"></path><path stroke="#000000" stroke-width="2.0" stroke-linejoin="round" stroke-linecap="butt" d="m516.1011 206.45932l287.52753 0l0 79.71652l-287.52753 0z" fill-rule="nonzero"></path><path fill="#d89f39" d="m556.1011 246.45932l287.52753 0l0 79.71652l-287.52753 0z" fill-rule="nonzero"></path><path stroke="#000000" stroke-width="2.0" stroke-linejoin="round" stroke-linecap="butt" d="m556.1011 246.45932l287.52753 0l0 79.71652l-287.52753 0z" fill-rule="nonzero"></path></g></svg>

